
<svg version="1.0" xmlns="http://www.w3.org/2000/svg"
 width="200.000000pt" height="200.000000pt" viewBox="0 0 200.000000 200.000000"
 preserveAspectRatio="xMidYMid meet">

<g transform="translate(0.000000,200.000000) scale(0.100000,-0.100000)"
fill="#000000" stroke="none">
<path d="M971 1658 c-252 -36 -476 -239 -543 -492 -22 -86 -24 -239 -3 -321 8
-33 34 -98 57 -145 33 -69 57 -101 127 -170 135 -134 275 -192 461 -193 171 0
329 61 456 177 l69 64 -60 6 c-187 21 -304 74 -426 196 -70 69 -94 101 -128
170 -60 125 -74 191 -69 330 6 128 33 221 92 315 47 74 48 75 39 74 -4 -1 -37
-6 -72 -11z"/>
</g>
</svg>
