<svg width="24" height="24" viewBox="0 0 24 24" fill="none" xmlns="http://www.w3.org/2000/svg">
<path d="M11.9195 6.29931C8.61216 6.29931 5.94296 8.96851 5.94296 12.2759C5.94296 15.5832 8.61216 18.2524 11.9195 18.2524C15.2269 18.2524 17.8961 15.5832 17.8961 12.2759C17.8961 8.96851 15.2269 6.29931 11.9195 6.29931ZM11.9195 16.1602C9.78066 16.1602 8.03519 14.4147 8.03519 12.2759C8.03519 10.137 9.78066 8.39154 11.9195 8.39154C14.0584 8.39154 15.8038 10.137 15.8038 12.2759C15.8038 14.4147 14.0584 16.1602 11.9195 16.1602ZM18.1408 4.66166C17.3686 4.66166 16.7451 5.28525 16.7451 6.05745C16.7451 6.82965 17.3686 7.45324 18.1408 7.45324C18.9131 7.45324 19.5366 6.83257 19.5366 6.05745C19.5369 5.87409 19.5009 5.69248 19.4309 5.52303C19.3608 5.35358 19.258 5.19962 19.1283 5.06996C18.9987 4.94031 18.8447 4.8375 18.6753 4.76744C18.5058 4.69737 18.3242 4.66143 18.1408 4.66166ZM23.5696 12.2759C23.5696 10.6674 23.5842 9.07341 23.4938 7.46781C23.4035 5.60287 22.978 3.94773 21.6143 2.584C20.2477 1.21734 18.5954 0.794817 16.7305 0.704483C15.122 0.61415 13.528 0.62872 11.9224 0.62872C10.3139 0.62872 8.71997 0.61415 7.11438 0.704483C5.24943 0.794817 3.5943 1.22026 2.23056 2.584C0.863903 3.95065 0.441377 5.60287 0.351044 7.46781C0.260711 9.07633 0.275281 10.6703 0.275281 12.2759C0.275281 13.8815 0.260711 15.4783 0.351044 17.0839C0.441377 18.9489 0.866817 20.604 2.23056 21.9677C3.59721 23.3344 5.24943 23.7569 7.11438 23.8473C8.72289 23.9376 10.3168 23.923 11.9224 23.923C13.5309 23.923 15.1249 23.9376 16.7305 23.8473C18.5954 23.7569 20.2506 23.3315 21.6143 21.9677C22.981 20.6011 23.4035 18.9489 23.4938 17.0839C23.5871 15.4783 23.5696 13.8844 23.5696 12.2759ZM21.0053 19.147C20.7926 19.6774 20.5361 20.0737 20.1253 20.4816C19.7144 20.8925 19.321 21.1489 18.7907 21.3616C17.2579 21.9707 13.6184 21.8337 11.9195 21.8337C10.2207 21.8337 6.5782 21.9707 5.04545 21.3645C4.51511 21.1518 4.11881 20.8954 3.71085 20.4845C3.29998 20.0737 3.04356 19.6803 2.83084 19.1499C2.22473 17.6143 2.36169 13.9747 2.36169 12.2759C2.36169 10.577 2.22473 6.93456 2.83084 5.40181C3.04356 4.87146 3.29998 4.47516 3.71085 4.06721C4.12172 3.65925 4.51511 3.39991 5.04545 3.18719C6.5782 2.58108 10.2207 2.71804 11.9195 2.71804C13.6184 2.71804 17.2608 2.58108 18.7936 3.18719C19.3239 3.39991 19.7202 3.65634 20.1282 4.06721C20.539 4.47808 20.7955 4.87146 21.0082 5.40181C21.6143 6.93456 21.4773 10.577 21.4773 12.2759C21.4773 13.9747 21.6143 17.6143 21.0053 19.147Z" fill="#009BD8"/>
</svg>
