
<svg version="1.0" xmlns="http://www.w3.org/2000/svg"
 width="200.000000pt" height="200.000000pt" viewBox="0 0 200.000000 200.000000"
 preserveAspectRatio="xMidYMid meet">

<g transform="translate(0.000000,200.000000) scale(0.100000,-0.100000)"
fill="#000000" stroke="none">
<path d="M960 1920 c-19 -19 -20 -31 -18 -207 l3 -187 28 -16 c24 -13 30 -13
55 0 l27 16 3 187 c2 176 1 188 -18 207 -11 11 -29 20 -40 20 -11 0 -29 -9
-40 -20z"/>
<path d="M337 1662 c-36 -39 -23 -61 111 -195 110 -110 132 -127 159 -127 22
0 36 6 43 19 24 45 13 64 -118 194 -134 134 -160 148 -195 109z"/>
<path d="M1463 1547 c-73 -73 -133 -141 -133 -150 0 -23 44 -67 67 -67 21 0
283 260 283 282 0 25 -40 68 -63 68 -14 0 -66 -45 -154 -133z"/>
<path d="M896 1424 c-218 -53 -366 -276 -327 -495 34 -186 179 -329 368 -361
283 -47 544 219 494 503 -32 174 -162 314 -332 354 -78 18 -125 18 -203 -1z
m219 -135 c36 -13 73 -38 105 -69 150 -151 107 -406 -86 -501 -71 -35 -198
-35 -269 1 -192 94 -235 349 -84 500 87 87 216 113 334 69z"/>
<path d="M80 1040 c-11 -11 -20 -29 -20 -40 0 -11 9 -29 20 -40 19 -19 31 -20
207 -18 l187 3 16 28 c13 24 13 30 0 55 l-16 27 -187 3 c-176 2 -188 1 -207
-18z"/>
<path d="M1516 1038 c-9 -12 -16 -29 -16 -38 0 -9 7 -26 16 -38 15 -21 20 -22
200 -22 171 0 185 1 204 20 11 11 20 29 20 40 0 11 -9 29 -20 40 -19 19 -33
20 -204 20 -180 0 -185 -1 -200 -22z"/>
<path d="M447 532 c-107 -107 -127 -132 -127 -158 0 -38 16 -54 55 -54 26 0
50 20 158 128 134 134 148 160 109 195 -39 36 -61 23 -195 -111z"/>
<path d="M1357 642 c-36 -39 -23 -61 111 -195 134 -134 160 -148 195 -109 36
39 23 61 -111 195 -134 134 -160 148 -195 109z"/>
<path d="M962 484 c-21 -15 -22 -20 -22 -200 0 -171 1 -185 20 -204 11 -11 29
-20 40 -20 11 0 29 9 40 20 19 19 20 33 20 204 0 180 -1 185 -22 200 -12 9
-29 16 -38 16 -9 0 -26 -7 -38 -16z"/>
</g>
</svg>
