
<svg version="1.0" xmlns="http://www.w3.org/2000/svg"
 width="200.000000pt" height="200.000000pt" viewBox="0 0 200.000000 200.000000"
 preserveAspectRatio="xMidYMid meet">

<g transform="translate(0.000000,200.000000) scale(0.100000,-0.100000)"
fill="#000000" stroke="none">
<path d="M1391 1969 c-82 -14 -170 -63 -233 -127 -67 -68 -397 -485 -432 -545
-111 -189 -48 -458 137 -580 154 -103 356 -103 505 0 52 35 182 183 182 206 0
28 -54 99 -94 122 -23 14 -45 25 -48 25 -4 0 -34 -35 -68 -77 -71 -90 -124
-129 -185 -139 -187 -28 -332 165 -248 330 17 33 389 502 419 528 56 49 167
62 239 29 141 -64 178 -236 80 -365 l-26 -34 34 -21 c19 -11 55 -43 81 -70
l46 -50 39 52 c103 136 125 308 60 457 -82 185 -287 294 -488 259z"/>
<path d="M1305 1340 c-124 -20 -216 -76 -305 -188 -33 -41 -60 -81 -60 -89 0
-40 72 -123 121 -138 19 -6 29 0 58 36 108 135 161 169 261 169 118 -1 220
-106 220 -229 0 -71 -23 -111 -187 -318 -268 -341 -292 -362 -393 -363 -74 0
-119 18 -169 68 -86 87 -95 204 -23 301 l26 34 -35 26 c-19 14 -55 47 -80 73
l-46 47 -32 -44 c-18 -25 -44 -70 -59 -102 -24 -53 -27 -69 -27 -173 0 -109 2
-119 32 -183 128 -269 487 -347 699 -150 39 36 358 432 428 531 99 140 104
347 12 490 -30 46 -109 122 -156 149 -78 45 -195 67 -285 53z"/>
</g>
</svg>
