<svg width="22" height="23" viewBox="0 0 22 23" fill="none" xmlns="http://www.w3.org/2000/svg">
<path fill-rule="evenodd" clip-rule="evenodd" d="M18.8403 4.04147C17.8533 3.048 16.679 2.26025 15.3854 1.72386C14.0918 1.18748 12.7046 0.913116 11.3042 0.916675C5.43204 0.916675 0.651685 5.69585 0.649311 11.5704C0.649311 13.4479 1.13945 15.2803 2.07108 16.8967L0.560303 22.4164L6.2082 20.9341C7.77047 21.7846 9.52074 22.2305 11.2995 22.2313H11.3042C17.1752 22.2313 21.9556 17.4521 21.958 11.5775C21.962 10.1777 21.6886 8.79096 21.1534 7.49745C20.6183 6.20394 19.8321 5.02932 18.8403 4.04147ZM11.3042 20.4333H11.3007C9.71456 20.4335 8.15764 20.0067 6.79328 19.1979L6.47048 19.0056L3.119 19.885L4.01265 16.6178L3.80259 16.2831C2.91581 14.8714 2.44638 13.2376 2.44847 11.5704C2.45085 6.68799 6.423 2.71584 11.3078 2.71584C12.4711 2.71325 13.6234 2.94142 14.698 3.38714C15.7726 3.83286 16.7481 4.48728 17.5681 5.31251C18.3924 6.13382 19.0458 7.11036 19.4905 8.18571C19.9352 9.26106 20.1623 10.4139 20.1588 11.5775C20.1564 16.46 16.1843 20.4333 11.3042 20.4333ZM16.1617 13.8004C15.8947 13.6663 14.5869 13.023 14.3424 12.934C14.0991 12.845 13.9223 12.8011 13.7443 13.0669C13.5662 13.3328 13.0559 13.9321 12.9005 14.1101C12.745 14.2881 12.5895 14.3095 12.3237 14.1766C12.0578 14.0437 11.1998 13.7624 10.1827 12.8557C9.39114 12.1496 8.85709 11.2785 8.70162 11.0114C8.54616 10.7444 8.68501 10.6008 8.81912 10.4679C8.93898 10.3492 9.08496 10.157 9.21787 10.0015C9.35079 9.84602 9.39471 9.73565 9.48371 9.55763C9.57272 9.37961 9.52881 9.22415 9.46117 9.09123C9.39471 8.95712 8.86184 7.64691 8.63991 7.11405C8.4251 6.5978 8.20555 6.66663 8.04177 6.65951C7.87216 6.65257 7.7024 6.64941 7.53264 6.65002C7.39766 6.65346 7.26483 6.68475 7.1425 6.74193C7.02017 6.79911 6.91098 6.88095 6.82176 6.98232C6.57729 7.24934 5.89014 7.89258 5.89014 9.20279C5.89014 10.513 6.84431 11.7793 6.97723 11.9573C7.11015 12.1353 8.85472 14.8234 11.525 15.9769C12.1611 16.2511 12.6572 16.4149 13.0429 16.5383C13.6802 16.7412 14.2605 16.7116 14.7198 16.6439C15.2313 16.568 16.2947 16.0007 16.5166 15.3788C16.7385 14.7569 16.7385 14.2241 16.6721 14.1125C16.6056 14.0009 16.4264 13.9333 16.1617 13.8004Z" fill="#009BD8"/>
</svg>
