<svg xmlns="http://www.w3.org/2000/svg" width="50" height="50" fill="none" viewBox="0 0 50 50"><g clip-path="url(#clip0_6_9)"><path fill="#9A75FF" d="M25.0006 0C20.0559 0 15.2223 1.46627 11.111 4.21339C6.99961 6.9605 3.7952 10.8651 1.90296 15.4334C0.0107107 20.0017 -0.484387 25.0285 0.480271 29.8782C1.44493 34.7278 3.82602 39.1825 7.32243 42.6789C10.8188 46.1754 15.2735 48.5565 20.1232 49.5211C24.9729 50.4858 29.9997 49.9907 34.568 48.0984C39.1363 46.2062 43.0408 43.0018 45.7879 38.8904C48.5351 34.7791 50.0013 29.9454 50.0013 25.0007C50.0009 18.3703 47.3668 12.0114 42.6784 7.32298C37.9899 2.63452 31.6311 0.0003937 25.0006 0V0ZM25.0006 47.7746C12.4438 47.7746 2.2268 37.5575 2.2268 25.0007C2.2268 12.444 12.4438 2.22691 25.0006 2.22691C37.5574 2.22691 47.7744 12.444 47.7744 25.0007C47.7744 37.5575 37.5574 47.7746 25.0006 47.7746Z"/><path fill="#9A75FF" d="M45.5135 23.8873C45.4809 23.2786 45.42 22.6759 45.3354 22.082C45.0423 20.0265 44.4365 18.0278 43.539 16.1555C41.3305 11.5622 37.5048 7.94533 32.7949 5.99781C30.6687 5.12304 28.41 4.61359 26.1142 4.49094V45.5165C28.41 45.3936 30.6686 44.8841 32.7949 44.0097V26.1142H43.2837C43.2461 26.7359 43.1773 27.3553 43.0773 27.97C42.7376 30.0311 42.0467 32.0187 41.0345 33.846C40.2339 35.2893 39.2438 36.6189 38.0905 37.7995L39.6627 39.3717C41.2485 37.7547 42.5575 35.8879 43.5375 33.846C44.4283 31.9891 45.0325 30.008 45.3294 27.97C45.4185 27.3613 45.4799 26.7447 45.5135 26.1202C45.5343 25.7505 45.5477 25.3779 45.5477 25.0067C45.5477 24.6356 45.5343 24.2585 45.5135 23.8873ZM28.3411 43.0135V6.98804C29.0946 7.12693 29.8384 7.31387 30.568 7.54774V42.4538C29.8384 42.6877 29.0946 42.8746 28.3411 43.0135V43.0135ZM32.7949 23.8873V8.42514C36.2814 10.0782 39.1627 12.7814 41.0345 16.1555C42.0559 17.9974 42.7496 20.0027 43.0847 22.082C43.1837 22.6759 43.25 23.2776 43.2837 23.8873H32.7949Z"/><path fill="#9A75FF" d="M4.4538 25.0007C4.4538 25.3749 4.46715 25.743 4.48794 26.1142C4.5206 26.7377 4.58197 27.3543 4.67203 27.964C4.96794 30.0039 5.57162 31.9872 6.46246 33.846C8.67099 38.4393 12.4967 42.0562 17.2065 44.0037C19.3327 44.8785 21.5914 45.3879 23.8873 45.5106V27.97H17.2065V41.5823C14.2295 40.1846 11.6842 38.0104 9.83842 35.2883C7.99265 32.5663 6.91464 29.3971 6.71782 26.1142C6.69555 25.746 6.6807 25.3719 6.6807 25.0007C6.6807 24.6296 6.69555 24.2584 6.71782 23.8873C6.75543 23.2766 6.82174 22.6749 6.91675 22.082C7.25184 20.0027 7.94556 17.9974 8.96699 16.1555C10.8388 12.7814 13.7201 10.0782 17.2065 8.42513V22.0835H23.8873V4.48499C21.5914 4.60795 19.3328 5.11739 17.2065 5.99186C12.4956 7.94083 8.66982 11.56 6.46246 16.1555C5.56342 18.0276 4.95611 20.0262 4.66164 22.082C4.57702 22.6759 4.51318 23.2786 4.48349 23.8873C4.46716 24.2584 4.4538 24.6266 4.4538 25.0007ZM19.4334 19.8551V7.54773C20.163 7.31386 20.9069 7.12692 21.6603 6.98803V19.8551H19.4334ZM19.4334 42.4538V30.1969H21.6603V43.0194C20.9067 42.8786 20.1629 42.6896 19.4334 42.4538V42.4538Z"/></g><defs><clipPath id="clip0_6_9"><rect width="50" height="50" fill="#fff"/></clipPath></defs></svg>